<svg width="36" height="27" viewBox="0 0 36 27" fill="none" xmlns="http://www.w3.org/2000/svg">
<path d="M23.1047 19.7038C24.1459 18.6676 24.8608 17.338 25.1581 15.8851C25.4553 14.4321 25.3214 12.9216 24.7735 11.5467C24.2255 10.1718 23.2884 8.99481 22.0819 8.16625C20.8753 7.33769 19.4542 6.89513 18 6.89513C16.5458 6.89513 15.1247 7.33769 13.9181 8.16625C12.7116 8.99481 11.7745 10.1718 11.2265 11.5467C10.6786 12.9216 10.5447 14.4321 10.8419 15.8851C11.1392 17.338 11.8541 18.6676 12.8953 19.7038C10.9335 20.7833 9.35419 22.4656 8.38126 24.5124C8.18359 24.9235 8.15402 25.398 8.29907 25.8314C8.44412 26.2648 8.75189 26.6216 9.15469 26.8234C9.55749 27.0252 10.0223 27.0553 10.4469 26.9073C10.8715 26.7592 11.2211 26.4451 11.4188 26.0339C12.0175 24.7719 12.9525 23.7077 14.1164 22.963C15.2804 22.2183 16.6263 21.8233 18 21.8233C19.3737 21.8233 20.7196 22.2183 21.8836 22.963C23.0475 23.7077 23.9825 24.7719 24.5813 26.0339C24.7208 26.3233 24.9371 26.5668 25.2057 26.7369C25.4742 26.9069 25.784 26.9965 26.1 26.9956C26.3532 26.9935 26.6028 26.9347 26.8313 26.8234C27.0323 26.7252 27.2123 26.5874 27.3609 26.4178C27.5095 26.2482 27.6236 26.0503 27.6969 25.8354C27.7701 25.6205 27.8009 25.393 27.7875 25.1659C27.7741 24.9388 27.7167 24.7167 27.6187 24.5124C26.6458 22.4656 25.0665 20.7833 23.1047 19.7038ZM14.0625 14.364C14.0625 13.5691 14.2934 12.7921 14.7261 12.1311C15.1587 11.4702 15.7737 10.955 16.4932 10.6508C17.2127 10.3466 18.0044 10.267 18.7682 10.4221C19.532 10.5772 20.2336 10.96 20.7842 11.5221C21.3349 12.0841 21.7099 12.8003 21.8618 13.5799C22.0138 14.3596 21.9358 15.1677 21.6378 15.9021C21.3398 16.6365 20.8351 17.2642 20.1876 17.7058C19.54 18.1475 18.7788 18.3832 18 18.3832C16.9569 18.3794 15.9575 17.9547 15.2199 17.2018C14.4822 16.4489 14.0662 15.4288 14.0625 14.364ZM35.325 15.742C34.967 16.0161 34.5169 16.1338 34.0739 16.0692C33.6308 16.0046 33.231 15.763 32.9625 15.3975C32.4339 14.6709 31.7686 14.0593 31.0056 13.5984C30.2426 13.1375 29.3971 12.8366 28.5188 12.7133C28.1854 12.6624 27.8747 12.5107 27.6266 12.2779C27.3784 12.0451 27.2043 11.7418 27.1266 11.4071C27.0969 11.3425 27.0734 11.2752 27.0562 11.2061C26.9993 10.9874 26.9854 10.7594 27.0155 10.5352C27.0456 10.311 27.1191 10.0951 27.2316 9.90012C27.3441 9.70514 27.4935 9.53492 27.671 9.39935C27.8485 9.26379 28.0506 9.16558 28.2656 9.11043C28.7225 8.98826 29.1418 8.75064 29.485 8.41949C29.8281 8.08834 30.0841 7.67432 30.2292 7.21561C30.3744 6.7569 30.404 6.26827 30.3154 5.79479C30.2268 5.32131 30.0229 4.87822 29.7223 4.50639C29.4218 4.13456 29.0344 3.84596 28.5958 3.6672C28.1572 3.48845 27.6816 3.42529 27.2128 3.48357C26.744 3.54184 26.2972 3.71966 25.9135 4.00064C25.5297 4.28161 25.2215 4.65669 25.0172 5.09128C24.9334 5.31261 24.8058 5.51389 24.6422 5.6825C24.4787 5.85111 24.2828 5.98342 24.0668 6.07112C23.8508 6.15882 23.6194 6.20003 23.3871 6.19216C23.1548 6.18429 22.9265 6.12751 22.7167 6.02538C22.5069 5.92326 22.32 5.77799 22.1678 5.59868C22.0156 5.41937 21.9013 5.20989 21.8321 4.98338C21.7629 4.75687 21.7403 4.5182 21.7657 4.28236C21.7911 4.04651 21.8639 3.81856 21.9797 3.6128C22.3563 2.80108 22.8981 2.08067 23.5691 1.49965C24.24 0.918627 25.0247 0.490357 25.8707 0.243417C26.7166 -0.00352235 27.6045 -0.0634525 28.4749 0.067627C29.3454 0.198706 30.1785 0.517781 30.9185 1.00356C31.6586 1.48933 32.2887 2.13064 32.7667 2.88468C33.2447 3.63872 33.5597 4.48815 33.6906 5.37629C33.8214 6.26443 33.7653 7.17085 33.5257 8.03507C33.2862 8.89928 32.8689 9.70142 32.3016 10.3879C33.6232 11.1001 34.7717 12.1056 35.6625 13.3305C35.7955 13.5115 35.8922 13.7174 35.9472 13.9365C36.0022 14.1557 36.0144 14.3837 35.983 14.6076C35.9517 14.8316 35.8775 15.047 35.7645 15.2416C35.6516 15.4363 35.5023 15.6063 35.325 15.742ZM7.48126 12.7133C6.60289 12.8366 5.75744 13.1375 4.9944 13.5984C4.23137 14.0593 3.56609 14.6709 3.03751 15.3975C2.87884 15.6098 2.67471 15.7823 2.44072 15.9017C2.20674 16.0211 1.9491 16.0843 1.68751 16.0865C1.32271 16.0845 0.968041 15.9638 0.675007 15.742C0.316965 15.4679 0.0802606 15.0599 0.0169671 14.6076C-0.0463264 14.1554 0.0689752 13.696 0.337507 13.3305C1.22828 12.1056 2.37676 11.1001 3.69844 10.3879C3.13113 9.70142 2.71379 8.89928 2.47428 8.03507C2.23476 7.17085 2.17857 6.26443 2.30945 5.37629C2.44034 4.48815 2.7553 3.63872 3.23331 2.88468C3.71132 2.13064 4.34138 1.48933 5.08146 1.00356C5.82153 0.517781 6.6546 0.198706 7.52507 0.067627C8.39553 -0.0634525 9.28337 -0.00352235 10.1294 0.243417C10.9753 0.490357 11.76 0.918627 12.4309 1.49965C13.1019 2.08067 13.6437 2.80108 14.0203 3.6128C14.1361 3.81856 14.2089 4.04651 14.2343 4.28236C14.2598 4.5182 14.2371 4.75687 14.168 4.98338C14.0988 5.20989 13.9845 5.41937 13.8322 5.59868C13.68 5.77799 13.4931 5.92326 13.2833 6.02538C13.0735 6.12751 12.8453 6.18429 12.6129 6.19216C12.3806 6.20003 12.1492 6.15882 11.9332 6.07112C11.7172 5.98342 11.5213 5.85111 11.3578 5.6825C11.1942 5.51389 11.0666 5.31261 10.9828 5.09128C10.7785 4.65669 10.4703 4.28161 10.0865 4.00064C9.70282 3.71966 9.25596 3.54184 8.78717 3.48357C8.31839 3.42529 7.84278 3.48845 7.40421 3.6672C6.96563 3.84596 6.57821 4.13456 6.27769 4.50639C5.97716 4.87822 5.77319 5.32131 5.6846 5.79479C5.59601 6.26827 5.62565 6.7569 5.77079 7.21561C5.91592 7.67432 6.17188 8.08834 6.51505 8.41949C6.85822 8.75064 7.27755 8.98826 7.73438 9.11043C7.94939 9.16558 8.15153 9.26379 8.32904 9.39935C8.50656 9.53492 8.65591 9.70514 8.76843 9.90012C8.88095 10.0951 8.95439 10.311 8.98449 10.5352C9.01459 10.7594 9.00074 10.9874 8.94376 11.2061C8.92664 11.2752 8.90309 11.3425 8.87344 11.4071C8.79571 11.7418 8.62156 12.0451 8.37343 12.2779C8.1253 12.5107 7.81457 12.6624 7.48126 12.7133Z" fill="#7F7F7F"/>
</svg>
