<svg width="26" height="32" viewBox="0 0 26 32" fill="none" xmlns="http://www.w3.org/2000/svg">
<path d="M16.1426 2V8.28571C16.1426 8.70248 16.3081 9.10218 16.6028 9.39688C16.8975 9.69158 17.2972 9.85714 17.714 9.85714H23.9997" stroke="#7F7F7F" stroke-width="2" stroke-linecap="round" stroke-linejoin="round"/>
<path d="M8.28571 8.28571H9.85714M8.28571 17.7143H17.7143M14.5714 24H17.7143M20.8571 30.2857H5.14286C4.30932 30.2857 3.50992 29.9546 2.92052 29.3652C2.33112 28.7758 2 27.9764 2 27.1429V5.14286C2 4.30932 2.33112 3.50992 2.92052 2.92052C3.50992 2.33112 4.30932 2 5.14286 2H16.1429L24 9.85714V27.1429C24 27.9764 23.6689 28.7758 23.0795 29.3652C22.4901 29.9546 21.6907 30.2857 20.8571 30.2857Z" stroke="#7F7F7F" stroke-width="3" stroke-linecap="round" stroke-linejoin="round"/>
</svg>
