<svg width="31" height="30" viewBox="0 0 31 30" fill="none" xmlns="http://www.w3.org/2000/svg">
<path d="M15.447 13.6624C16.5179 12.5697 17.2533 11.1677 17.559 9.63541C17.8648 8.10315 17.727 6.51028 17.1634 5.06035C16.5998 3.61041 15.6359 2.36926 14.3949 1.4955C13.1539 0.621731 11.6922 0.155029 10.1965 0.155029C8.70074 0.155029 7.23899 0.621731 5.99799 1.4955C4.75699 2.36926 3.7931 3.61041 3.2295 5.06035C2.66589 6.51028 2.52816 8.10315 2.83391 9.63541C3.13966 11.1677 3.875 12.5697 4.94596 13.6624C2.92808 14.8009 1.30369 16.575 0.302965 18.7334C0.0996503 19.167 0.069243 19.6673 0.218434 20.1244C0.367624 20.5814 0.684191 20.9577 1.09849 21.1705C1.5128 21.3833 1.9909 21.4151 2.42762 21.259C2.86434 21.1028 3.22391 20.7715 3.42723 20.338C4.04311 19.0071 5.00474 17.8848 6.20194 17.0995C7.39915 16.3142 8.78352 15.8976 10.1965 15.8976C11.6094 15.8976 12.9938 16.3142 14.191 17.0995C15.3882 17.8848 16.3498 19.0071 16.9657 20.338C17.1092 20.6431 17.3318 20.9 17.6079 21.0793C17.8841 21.2586 18.2028 21.3531 18.5278 21.3521C18.7882 21.3499 19.045 21.2879 19.28 21.1705C19.4868 21.067 19.6719 20.9216 19.8247 20.7428C19.9775 20.5639 20.095 20.3552 20.1703 20.1286C20.2456 19.902 20.2773 19.6621 20.2635 19.4226C20.2497 19.1831 20.1907 18.9489 20.0899 18.7334C19.0892 16.575 17.4648 14.8009 15.447 13.6624ZM6.14649 8.0314C6.14649 7.19312 6.38402 6.37367 6.82903 5.67666C7.27405 4.97966 7.90657 4.43641 8.6466 4.11561C9.38664 3.79482 10.201 3.71088 10.9866 3.87442C11.7722 4.03796 12.4938 4.44163 13.0602 5.03439C13.6266 5.62714 14.0123 6.38236 14.1686 7.20453C14.3249 8.0267 14.2447 8.8789 13.9381 9.65337C13.6316 10.4278 13.1125 11.0898 12.4465 11.5555C11.7805 12.0212 10.9975 12.2698 10.1965 12.2698C9.12351 12.2658 8.0956 11.818 7.33691 11.024C6.57822 10.23 6.1503 9.15427 6.14649 8.0314Z" fill="#D14124"/>
<path d="M24.5077 16.9839C20.922 16.9839 18.0146 19.8913 18.0146 23.4769C18.0146 27.0626 20.922 29.9699 24.5077 29.9699C28.0933 29.9699 31.0007 27.0626 31.0007 23.4769C31.0007 19.8913 28.0933 16.9839 24.5077 16.9839Z" fill="#D14124"/>
<path d="M27.1741 23.013H24.9711V20.81C24.9711 20.7463 24.9189 20.6941 24.8552 20.6941H24.1595C24.0957 20.6941 24.0435 20.7463 24.0435 20.81V23.013H21.8406C21.7768 23.013 21.7246 23.0652 21.7246 23.129V23.8247C21.7246 23.8884 21.7768 23.9406 21.8406 23.9406H24.0435V26.1436C24.0435 26.2074 24.0957 26.2595 24.1595 26.2595H24.8552C24.9189 26.2595 24.9711 26.2074 24.9711 26.1436V23.9406H27.1741C27.2379 23.9406 27.2901 23.8884 27.2901 23.8247V23.129C27.2901 23.0652 27.2379 23.013 27.1741 23.013Z" fill="white"/>
</svg>
