<svg width="34" height="32" viewBox="0 0 34 32" fill="none" xmlns="http://www.w3.org/2000/svg">
<path fill-rule="evenodd" clip-rule="evenodd" d="M2.95312 0C2.16991 0 1.41877 0.311132 0.86495 0.86495C0.311132 1.41877 0 2.16991 0 2.95312L0 24.0469C0 25.677 1.323 27 2.95312 27H24.0469C24.8301 27 25.5812 26.6889 26.135 26.135C26.6889 25.5812 27 24.8301 27 24.0469V2.95312C27 2.16991 26.6889 1.41877 26.135 0.86495C25.5812 0.311132 24.8301 0 24.0469 0H2.95312ZM2.53125 2.95312C2.53125 2.84124 2.5757 2.73393 2.65481 2.65481C2.73393 2.5757 2.84124 2.53125 2.95312 2.53125H24.0469C24.1588 2.53125 24.2661 2.5757 24.3452 2.65481C24.4243 2.73393 24.4688 2.84124 24.4688 2.95312V24.0469C24.4688 24.1588 24.4243 24.2661 24.3452 24.3452C24.2661 24.4243 24.1588 24.4688 24.0469 24.4688H2.95312C2.84124 24.4688 2.73393 24.4243 2.65481 24.3452C2.5757 24.2661 2.53125 24.1588 2.53125 24.0469V2.95312ZM19.8281 5.0625C19.4925 5.0625 19.1705 5.19584 18.9332 5.43319C18.6958 5.67054 18.5625 5.99246 18.5625 6.32812V18.9844C18.5625 19.32 18.6958 19.642 18.9332 19.8793C19.1705 20.1167 19.4925 20.25 19.8281 20.25C20.1638 20.25 20.4857 20.1167 20.7231 19.8793C20.9604 19.642 21.0938 19.32 21.0938 18.9844V6.32812C21.0938 5.99246 20.9604 5.67054 20.7231 5.43319C20.4857 5.19584 20.1638 5.0625 19.8281 5.0625ZM5.90625 6.32812C5.90625 5.99246 6.03959 5.67054 6.27694 5.43319C6.51429 5.19584 6.83621 5.0625 7.17188 5.0625C7.50754 5.0625 7.82946 5.19584 8.06681 5.43319C8.30416 5.67054 8.4375 5.99246 8.4375 6.32812V15.6094C8.4375 15.945 8.30416 16.267 8.06681 16.5043C7.82946 16.7417 7.50754 16.875 7.17188 16.875C6.83621 16.875 6.51429 16.7417 6.27694 16.5043C6.03959 16.267 5.90625 15.945 5.90625 15.6094V6.32812ZM13.5 5.0625C13.1643 5.0625 12.8424 5.19584 12.6051 5.43319C12.3677 5.67054 12.2344 5.99246 12.2344 6.32812V12.2344C12.2344 12.57 12.3677 12.892 12.6051 13.1293C12.8424 13.3667 13.1643 13.5 13.5 13.5C13.8357 13.5 14.1576 13.3667 14.3949 13.1293C14.6323 12.892 14.7656 12.57 14.7656 12.2344V6.32812C14.7656 5.99246 14.6323 5.67054 14.3949 5.43319C14.1576 5.19584 13.8357 5.0625 13.5 5.0625Z" fill="#D14124"/>
<path d="M27 18.875C23.6176 18.875 20.875 21.6176 20.875 25C20.875 28.3824 23.6176 31.125 27 31.125C30.3824 31.125 33.125 28.3824 33.125 25C33.125 21.6176 30.3824 18.875 27 18.875Z" fill="#D14124"/>
<path d="M29.5156 24.5625H27.4375V22.4844C27.4375 22.4242 27.3883 22.375 27.3281 22.375H26.6719C26.6117 22.375 26.5625 22.4242 26.5625 22.4844V24.5625H24.4844C24.4242 24.5625 24.375 24.6117 24.375 24.6719V25.3281C24.375 25.3883 24.4242 25.4375 24.4844 25.4375H26.5625V27.5156C26.5625 27.5758 26.6117 27.625 26.6719 27.625H27.3281C27.3883 27.625 27.4375 27.5758 27.4375 27.5156V25.4375H29.5156C29.5758 25.4375 29.625 25.3883 29.625 25.3281V24.6719C29.625 24.6117 29.5758 24.5625 29.5156 24.5625Z" fill="white"/>
</svg>
