<svg width="34" height="28" viewBox="0 0 34 28" fill="none" xmlns="http://www.w3.org/2000/svg">
<path d="M20.1836 12.0173L17 10.5946L20.1836 9.17189L21.6364 6.05405L23.0891 9.17189L26.2727 10.5946L23.0891 12.0173L21.6364 15.1351L20.1836 12.0173ZM4.63636 18.1622L6.08909 15.0443L9.27273 13.6216L6.08909 12.1989L4.63636 9.08108L3.18364 12.1989L0 13.6216L3.18364 15.0443L4.63636 18.1622ZM11.5909 10.5946L13.2755 6.94703L17 5.2973L13.2755 3.64757L11.5909 0L9.90636 3.64757L6.18182 5.2973L9.90636 6.94703L11.5909 10.5946ZM5.40909 28L14.6818 18.9038L20.8636 24.9578L34 10.4886L31.8209 8.35459L20.8636 20.4173L14.6818 14.3632L3.09091 25.7297L5.40909 28Z" fill="#7F7F7F"/>
</svg>
