<svg width="55" height="56" viewBox="0 0 55 56" fill="none" xmlns="http://www.w3.org/2000/svg">
<circle cx="27.5" cy="28" r="27.5" fill="url(#paint0_linear_401_2739)"/>
<path d="M32.8957 30.7847C33.7923 29.902 34.4079 28.7694 34.6639 27.5317C34.9199 26.294 34.8046 25.0073 34.3327 23.8361C33.8609 22.6648 33.0539 21.6622 32.0149 20.9564C30.976 20.2506 29.7522 19.8736 28.5 19.8736C27.2478 19.8736 26.024 20.2506 24.9851 20.9564C23.9461 21.6622 23.1391 22.6648 22.6673 23.8361C22.1954 25.0073 22.0801 26.294 22.3361 27.5317C22.5921 28.7694 23.2077 29.902 24.1043 30.7847C22.4149 31.7043 21.055 33.1374 20.2172 34.8809C20.047 35.2312 20.0215 35.6353 20.1464 36.0045C20.2713 36.3737 20.5364 36.6777 20.8832 36.8496C21.2301 37.0214 21.6303 37.0471 21.9959 36.921C22.3616 36.7949 22.6626 36.5273 22.8328 36.177C23.3484 35.102 24.1535 34.1954 25.1558 33.561C26.1581 32.9267 27.3171 32.5902 28.5 32.5902C29.6829 32.5902 30.8419 32.9267 31.8442 33.561C32.8465 34.1954 33.6516 35.102 34.1672 36.177C34.2874 36.4235 34.4737 36.631 34.7049 36.7758C34.9361 36.9207 35.2029 36.9971 35.475 36.9963C35.693 36.9945 35.908 36.9444 36.1047 36.8496C36.2778 36.7659 36.4328 36.6485 36.5608 36.504C36.6887 36.3596 36.787 36.191 36.8501 36.0079C36.9131 35.8249 36.9396 35.6311 36.9281 35.4376C36.9166 35.2442 36.8672 35.055 36.7828 34.8809C35.945 33.1374 34.5851 31.7043 32.8957 30.7847ZM25.1094 26.236C25.1094 25.5589 25.3082 24.8969 25.6808 24.3339C26.0534 23.7709 26.5829 23.3321 27.2025 23.0729C27.822 22.8138 28.5038 22.746 29.1615 22.8781C29.8192 23.0102 30.4233 23.3363 30.8975 23.8151C31.3717 24.2939 31.6946 24.904 31.8255 25.5681C31.9563 26.2322 31.8892 26.9206 31.6325 27.5462C31.3759 28.1718 30.9413 28.7065 30.3837 29.0827C29.8261 29.4589 29.1706 29.6597 28.5 29.6597C27.6017 29.6565 26.7412 29.2948 26.106 28.6534C25.4708 28.012 25.1126 27.1431 25.1094 26.236ZM43.4187 27.4099C43.1104 27.6434 42.7229 27.7436 42.3414 27.6886C41.9599 27.6335 41.6156 27.4277 41.3844 27.1164C40.9292 26.4975 40.3563 25.9764 39.6993 25.5838C39.0422 25.1912 38.3142 24.9348 37.5578 24.8299C37.2708 24.7865 37.0032 24.6573 36.7895 24.459C36.5759 24.2607 36.4259 24.0023 36.359 23.7171C36.3335 23.6622 36.3132 23.6048 36.2984 23.546C36.2494 23.3597 36.2374 23.1654 36.2634 22.9744C36.2893 22.7834 36.3525 22.5995 36.4494 22.4334C36.5463 22.2673 36.6749 22.1223 36.8278 22.0069C36.9806 21.8914 37.1547 21.8077 37.3398 21.7607C37.7332 21.6567 38.0943 21.4543 38.3898 21.1722C38.6853 20.8901 38.9057 20.5374 39.0307 20.1466C39.1557 19.7559 39.1812 19.3396 39.1049 18.9363C39.0286 18.533 38.853 18.1555 38.5942 17.8388C38.3354 17.522 38.0018 17.2762 37.6242 17.1239C37.2465 16.9716 36.8369 16.9178 36.4333 16.9675C36.0296 17.0171 35.6448 17.1686 35.3144 17.408C34.9839 17.6473 34.7185 17.9668 34.5426 18.337C34.4705 18.5256 34.3605 18.697 34.2197 18.8406C34.0789 18.9843 33.9102 19.097 33.7242 19.1717C33.5382 19.2464 33.3389 19.2815 33.1389 19.2748C32.9388 19.2681 32.7423 19.2197 32.5616 19.1327C32.3809 19.0457 32.22 18.922 32.0889 18.7692C31.9578 18.6165 31.8594 18.4381 31.7998 18.2451C31.7402 18.0521 31.7208 17.8488 31.7426 17.6479C31.7645 17.447 31.8273 17.2528 31.927 17.0776C32.2512 16.3861 32.7178 15.7724 33.2956 15.2775C33.8734 14.7825 34.549 14.4177 35.2775 14.2074C36.006 13.997 36.7705 13.9459 37.5201 14.0576C38.2697 14.1693 38.987 14.4411 39.6243 14.8549C40.2616 15.2687 40.8041 15.815 41.2158 16.4573C41.6274 17.0996 41.8986 17.8232 42.0113 18.5798C42.124 19.3364 42.0756 20.1085 41.8694 20.8447C41.6631 21.5809 41.3037 22.2642 40.8152 22.849C41.9534 23.4556 42.9423 24.3122 43.7094 25.3556C43.8239 25.5098 43.9072 25.6852 43.9545 25.8719C44.0019 26.0585 44.0124 26.2528 43.9854 26.4435C43.9584 26.6343 43.8945 26.8178 43.7973 26.9836C43.7 27.1494 43.5714 27.2943 43.4187 27.4099ZM19.4422 24.8299C18.6858 24.9348 17.9578 25.1912 17.3007 25.5838C16.6437 25.9764 16.0708 26.4975 15.6156 27.1164C15.479 27.2973 15.3032 27.4442 15.1017 27.5459C14.9002 27.6476 14.6784 27.7015 14.4531 27.7033C14.139 27.7016 13.8336 27.5988 13.5813 27.4099C13.2729 27.1764 13.0691 26.8288 13.0146 26.4435C12.9601 26.0583 13.0594 25.667 13.2906 25.3556C14.0577 24.3122 15.0467 23.4556 16.1848 22.849C15.6963 22.2642 15.3369 21.5809 15.1306 20.8447C14.9244 20.1085 14.876 19.3364 14.9887 18.5798C15.1014 17.8232 15.3726 17.0996 15.7842 16.4573C16.1959 15.815 16.7384 15.2687 17.3757 14.8549C18.013 14.4411 18.7304 14.1693 19.4799 14.0576C20.2295 13.9459 20.994 13.997 21.7225 14.2074C22.451 14.4177 23.1266 14.7825 23.7044 15.2775C24.2822 15.7724 24.7488 16.3861 25.073 17.0776C25.1727 17.2528 25.2355 17.447 25.2574 17.6479C25.2792 17.8488 25.2598 18.0521 25.2002 18.2451C25.1406 18.4381 25.0422 18.6165 24.9111 18.7692C24.78 18.922 24.6191 19.0457 24.4384 19.1327C24.2577 19.2197 24.0612 19.2681 23.8611 19.2748C23.6611 19.2815 23.4618 19.2464 23.2758 19.1717C23.0898 19.097 22.9211 18.9843 22.7803 18.8406C22.6395 18.697 22.5296 18.5256 22.4574 18.337C22.2815 17.9668 22.0161 17.6473 21.6856 17.408C21.3552 17.1686 20.9704 17.0171 20.5667 16.9675C20.1631 16.9178 19.7535 16.9716 19.3758 17.1239C18.9982 17.2762 18.6646 17.522 18.4058 17.8388C18.147 18.1555 17.9714 18.533 17.8951 18.9363C17.8188 19.3396 17.8443 19.7559 17.9693 20.1466C18.0943 20.5374 18.3147 20.8901 18.6102 21.1722C18.9057 21.4543 19.2668 21.6567 19.6602 21.7607C19.8453 21.8077 20.0194 21.8914 20.1722 22.0069C20.3251 22.1223 20.4537 22.2673 20.5506 22.4334C20.6475 22.5995 20.7107 22.7834 20.7366 22.9744C20.7626 23.1654 20.7506 23.3597 20.7016 23.546C20.6868 23.6048 20.6666 23.6622 20.641 23.7171C20.5741 24.0023 20.4241 24.2607 20.2105 24.459C19.9968 24.6573 19.7292 24.7865 19.4422 24.8299Z" fill="white"/>
<defs>
<linearGradient id="paint0_linear_401_2739" x1="-0.0249286" y1="55.5001" x2="54.9751" y2="55.5001" gradientUnits="userSpaceOnUse">
<stop stop-color="#D14124"/>
<stop offset="1" stop-color="#B02509"/>
</linearGradient>
</defs>
</svg>
