<svg width="55" height="56" viewBox="0 0 55 56" fill="none" xmlns="http://www.w3.org/2000/svg">
<circle cx="27.5" cy="28" r="27.5" fill="url(#paint0_linear_391_2559)"/>
<path d="M17.3333 30.3333H25.3333C25.687 30.3333 26.0261 30.1929 26.2761 29.9428C26.5262 29.6928 26.6667 29.3536 26.6667 29V18.3333C26.6667 17.9797 26.5262 17.6406 26.2761 17.3905C26.0261 17.1405 25.687 17 25.3333 17H17.3333C16.9797 17 16.6406 17.1405 16.3905 17.3905C16.1405 17.6406 16 17.9797 16 18.3333V29C16 29.3536 16.1405 29.6928 16.3905 29.9428C16.6406 30.1929 16.9797 30.3333 17.3333 30.3333ZM16 39.6667C16 40.0203 16.1405 40.3594 16.3905 40.6095C16.6406 40.8595 16.9797 41 17.3333 41H25.3333C25.687 41 26.0261 40.8595 26.2761 40.6095C26.5262 40.3594 26.6667 40.0203 26.6667 39.6667V34.3333C26.6667 33.9797 26.5262 33.6406 26.2761 33.3905C26.0261 33.1405 25.687 33 25.3333 33H17.3333C16.9797 33 16.6406 33.1405 16.3905 33.3905C16.1405 33.6406 16 33.9797 16 34.3333V39.6667ZM29.3333 39.6667C29.3333 40.0203 29.4738 40.3594 29.7239 40.6095C29.9739 40.8595 30.313 41 30.6667 41H38.6667C39.0203 41 39.3594 40.8595 39.6095 40.6095C39.8595 40.3594 40 40.0203 40 39.6667V30.3333C40 29.9797 39.8595 29.6406 39.6095 29.3905C39.3594 29.1405 39.0203 29 38.6667 29H30.6667C30.313 29 29.9739 29.1405 29.7239 29.3905C29.4738 29.6406 29.3333 29.9797 29.3333 30.3333V39.6667ZM30.6667 26.3333H38.6667C39.0203 26.3333 39.3594 26.1929 39.6095 25.9428C39.8595 25.6928 40 25.3536 40 25V18.3333C40 17.9797 39.8595 17.6406 39.6095 17.3905C39.3594 17.1405 39.0203 17 38.6667 17H30.6667C30.313 17 29.9739 17.1405 29.7239 17.3905C29.4738 17.6406 29.3333 17.9797 29.3333 18.3333V25C29.3333 25.3536 29.4738 25.6928 29.7239 25.9428C29.9739 26.1929 30.313 26.3333 30.6667 26.3333Z" fill="white"/>
<defs>
<linearGradient id="paint0_linear_391_2559" x1="-0.0249286" y1="55.5001" x2="54.9751" y2="55.5001" gradientUnits="userSpaceOnUse">
<stop stop-color="#D14124"/>
<stop offset="1" stop-color="#B02509"/>
</linearGradient>
</defs>
</svg>
