<svg width="55" height="56" viewBox="0 0 55 56" fill="none" xmlns="http://www.w3.org/2000/svg">
<circle cx="27.5" cy="28" r="27.5" fill="url(#paint0_linear_401_2619)"/>
<path d="M29.4535 28.7418C30.4638 27.711 31.1574 26.3884 31.4458 24.943C31.7343 23.4976 31.6043 21.995 31.0727 20.6273C30.541 19.2595 29.6318 18.0887 28.4611 17.2645C27.2904 16.4402 25.9115 16 24.5006 16C23.0897 16 21.7108 16.4402 20.5401 17.2645C19.3694 18.0887 18.4602 19.2595 17.9285 20.6273C17.3969 21.995 17.2669 23.4976 17.5554 24.943C17.8438 26.3884 18.5374 27.711 19.5477 28.7418C17.6442 29.8157 16.1119 31.4893 15.1679 33.5254C14.9761 33.9344 14.9474 34.4063 15.0881 34.8375C15.2289 35.2686 15.5275 35.6236 15.9183 35.8243C16.3091 36.025 16.7601 36.055 17.1721 35.9078C17.5841 35.7605 17.9233 35.448 18.1151 35.039C18.696 33.7836 19.6032 32.7248 20.7325 31.984C21.8619 31.2432 23.1678 30.8503 24.5006 30.8503C25.8335 30.8503 27.1394 31.2432 28.2687 31.984C29.3981 32.7248 30.3052 33.7836 30.8862 35.039C31.0216 35.3268 31.2315 35.5691 31.492 35.7382C31.7525 35.9074 32.0532 35.9966 32.3597 35.9957C32.6054 35.9936 32.8476 35.9351 33.0693 35.8243C33.2643 35.7266 33.439 35.5895 33.5831 35.4208C33.7273 35.2521 33.8381 35.0552 33.9091 34.8415C33.9802 34.6277 34.01 34.4014 33.997 34.1755C33.984 33.9496 33.9284 33.7286 33.8333 33.5254C32.8893 31.4893 31.357 29.8157 29.4535 28.7418ZM20.6802 23.4299C20.6802 22.6392 20.9043 21.8662 21.324 21.2087C21.7438 20.5512 22.3405 20.0387 23.0386 19.7361C23.7367 19.4335 24.5048 19.3543 25.2459 19.5086C25.987 19.6628 26.6678 20.0436 27.202 20.6028C27.7363 21.162 28.1002 21.8744 28.2476 22.6499C28.395 23.4255 28.3194 24.2294 28.0302 24.96C27.7411 25.6905 27.2514 26.315 26.6231 26.7543C25.9949 27.1936 25.2562 27.4281 24.5006 27.4281C23.4885 27.4244 22.5188 27.0019 21.8031 26.2529C21.0874 25.5039 20.6838 24.4892 20.6802 23.4299Z" fill="white"/>
<path d="M38 31.875C34.6176 31.875 31.875 34.6176 31.875 38C31.875 41.3824 34.6176 44.125 38 44.125C41.3824 44.125 44.125 41.3824 44.125 38C44.125 34.6176 41.3824 31.875 38 31.875Z" fill="white"/>
<path d="M40.5156 37.5625H38.4375V35.4844C38.4375 35.4242 38.3883 35.375 38.3281 35.375H37.6719C37.6117 35.375 37.5625 35.4242 37.5625 35.4844V37.5625H35.4844C35.4242 37.5625 35.375 37.6117 35.375 37.6719V38.3281C35.375 38.3883 35.4242 38.4375 35.4844 38.4375H37.5625V40.5156C37.5625 40.5758 37.6117 40.625 37.6719 40.625H38.3281C38.3883 40.625 38.4375 40.5758 38.4375 40.5156V38.4375H40.5156C40.5758 38.4375 40.625 38.3883 40.625 38.3281V37.6719C40.625 37.6117 40.5758 37.5625 40.5156 37.5625Z" fill="url(#paint1_linear_401_2619)"/>
<defs>
<linearGradient id="paint0_linear_401_2619" x1="-0.0249286" y1="55.5001" x2="54.9751" y2="55.5001" gradientUnits="userSpaceOnUse">
<stop stop-color="#D14124"/>
<stop offset="1" stop-color="#B02509"/>
</linearGradient>
<linearGradient id="paint1_linear_401_2619" x1="35.3726" y1="40.625" x2="40.6226" y2="40.625" gradientUnits="userSpaceOnUse">
<stop stop-color="#D14124"/>
<stop offset="1" stop-color="#B02509"/>
</linearGradient>
</defs>
</svg>
