<svg width="55" height="56" viewBox="0 0 55 56" fill="none" xmlns="http://www.w3.org/2000/svg">
<circle cx="27.5" cy="28" r="27.5" fill="url(#paint0_linear_391_2589)"/>
<path fill-rule="evenodd" clip-rule="evenodd" d="M13.9531 15.3125C13.1699 15.3125 12.4188 15.6236 11.865 16.1775C11.3111 16.7313 11 17.4824 11 18.2656V39.3594C11 40.9895 12.323 42.3125 13.9531 42.3125H35.0469C35.8301 42.3125 36.5812 42.0014 37.135 41.4475C37.6889 40.8937 38 40.1426 38 39.3594V18.2656C38 17.4824 37.6889 16.7313 37.135 16.1775C36.5812 15.6236 35.8301 15.3125 35.0469 15.3125H13.9531ZM13.5312 18.2656C13.5312 18.1537 13.5757 18.0464 13.6548 17.9673C13.7339 17.8882 13.8412 17.8438 13.9531 17.8438H35.0469C35.1588 17.8438 35.2661 17.8882 35.3452 17.9673C35.4243 18.0464 35.4688 18.1537 35.4688 18.2656V39.3594C35.4688 39.4713 35.4243 39.5786 35.3452 39.6577C35.2661 39.7368 35.1588 39.7812 35.0469 39.7812H13.9531C13.8412 39.7812 13.7339 39.7368 13.6548 39.6577C13.5757 39.5786 13.5312 39.4713 13.5312 39.3594V18.2656ZM30.8281 20.375C30.4925 20.375 30.1705 20.5083 29.9332 20.7457C29.6958 20.983 29.5625 21.305 29.5625 21.6406V34.2969C29.5625 34.6325 29.6958 34.9545 29.9332 35.1918C30.1705 35.4292 30.4925 35.5625 30.8281 35.5625C31.1638 35.5625 31.4857 35.4292 31.7231 35.1918C31.9604 34.9545 32.0938 34.6325 32.0938 34.2969V21.6406C32.0938 21.305 31.9604 20.983 31.7231 20.7457C31.4857 20.5083 31.1638 20.375 30.8281 20.375ZM16.9062 21.6406C16.9062 21.305 17.0396 20.983 17.2769 20.7457C17.5143 20.5083 17.8362 20.375 18.1719 20.375C18.5075 20.375 18.8295 20.5083 19.0668 20.7457C19.3042 20.983 19.4375 21.305 19.4375 21.6406V30.9219C19.4375 31.2575 19.3042 31.5795 19.0668 31.8168C18.8295 32.0542 18.5075 32.1875 18.1719 32.1875C17.8362 32.1875 17.5143 32.0542 17.2769 31.8168C17.0396 31.5795 16.9062 31.2575 16.9062 30.9219V21.6406ZM24.5 20.375C24.1643 20.375 23.8424 20.5083 23.6051 20.7457C23.3677 20.983 23.2344 21.305 23.2344 21.6406V27.5469C23.2344 27.8825 23.3677 28.2045 23.6051 28.4418C23.8424 28.6792 24.1643 28.8125 24.5 28.8125C24.8357 28.8125 25.1576 28.6792 25.3949 28.4418C25.6323 28.2045 25.7656 27.8825 25.7656 27.5469V21.6406C25.7656 21.305 25.6323 20.983 25.3949 20.7457C25.1576 20.5083 24.8357 20.375 24.5 20.375Z" fill="white"/>
<path d="M38 34.1875C34.6176 34.1875 31.875 36.9301 31.875 40.3125C31.875 43.6949 34.6176 46.4375 38 46.4375C41.3824 46.4375 44.125 43.6949 44.125 40.3125C44.125 36.9301 41.3824 34.1875 38 34.1875Z" fill="white"/>
<path d="M40.5156 39.875H38.4375V37.7969C38.4375 37.7367 38.3883 37.6875 38.3281 37.6875H37.6719C37.6117 37.6875 37.5625 37.7367 37.5625 37.7969V39.875H35.4844C35.4242 39.875 35.375 39.9242 35.375 39.9844V40.6406C35.375 40.7008 35.4242 40.75 35.4844 40.75H37.5625V42.8281C37.5625 42.8883 37.6117 42.9375 37.6719 42.9375H38.3281C38.3883 42.9375 38.4375 42.8883 38.4375 42.8281V40.75H40.5156C40.5758 40.75 40.625 40.7008 40.625 40.6406V39.9844C40.625 39.9242 40.5758 39.875 40.5156 39.875Z" fill="#D14124"/>
<defs>
<linearGradient id="paint0_linear_391_2589" x1="-0.0249286" y1="55.5001" x2="54.9751" y2="55.5001" gradientUnits="userSpaceOnUse">
<stop stop-color="#D14124"/>
<stop offset="1" stop-color="#B02509"/>
</linearGradient>
</defs>
</svg>
