<svg width="55" height="56" viewBox="0 0 55 56" fill="none" xmlns="http://www.w3.org/2000/svg">
<circle cx="27.5" cy="28" r="27.5" fill="url(#paint0_linear_401_2649)"/>
<path fill-rule="evenodd" clip-rule="evenodd" d="M16.9531 15C16.1699 15 15.4188 15.3111 14.865 15.865C14.3111 16.4188 14 17.1699 14 17.9531V39.0469C14 40.677 15.323 42 16.9531 42H38.0469C38.8301 42 39.5812 41.6889 40.135 41.135C40.6889 40.5812 41 39.8301 41 39.0469V17.9531C41 17.1699 40.6889 16.4188 40.135 15.865C39.5812 15.3111 38.8301 15 38.0469 15H16.9531ZM16.5312 17.9531C16.5312 17.8412 16.5757 17.7339 16.6548 17.6548C16.7339 17.5757 16.8412 17.5312 16.9531 17.5312H38.0469C38.1588 17.5312 38.2661 17.5757 38.3452 17.6548C38.4243 17.7339 38.4688 17.8412 38.4688 17.9531V39.0469C38.4688 39.1588 38.4243 39.2661 38.3452 39.3452C38.2661 39.4243 38.1588 39.4688 38.0469 39.4688H16.9531C16.8412 39.4688 16.7339 39.4243 16.6548 39.3452C16.5757 39.2661 16.5312 39.1588 16.5312 39.0469V17.9531ZM33.8281 20.0625C33.4925 20.0625 33.1705 20.1958 32.9332 20.4332C32.6958 20.6705 32.5625 20.9925 32.5625 21.3281V33.9844C32.5625 34.32 32.6958 34.642 32.9332 34.8793C33.1705 35.1167 33.4925 35.25 33.8281 35.25C34.1638 35.25 34.4857 35.1167 34.7231 34.8793C34.9604 34.642 35.0938 34.32 35.0938 33.9844V21.3281C35.0938 20.9925 34.9604 20.6705 34.7231 20.4332C34.4857 20.1958 34.1638 20.0625 33.8281 20.0625ZM19.9062 21.3281C19.9062 20.9925 20.0396 20.6705 20.2769 20.4332C20.5143 20.1958 20.8362 20.0625 21.1719 20.0625C21.5075 20.0625 21.8295 20.1958 22.0668 20.4332C22.3042 20.6705 22.4375 20.9925 22.4375 21.3281V30.6094C22.4375 30.945 22.3042 31.267 22.0668 31.5043C21.8295 31.7417 21.5075 31.875 21.1719 31.875C20.8362 31.875 20.5143 31.7417 20.2769 31.5043C20.0396 31.267 19.9062 30.945 19.9062 30.6094V21.3281ZM27.5 20.0625C27.1643 20.0625 26.8424 20.1958 26.6051 20.4332C26.3677 20.6705 26.2344 20.9925 26.2344 21.3281V27.2344C26.2344 27.57 26.3677 27.892 26.6051 28.1293C26.8424 28.3667 27.1643 28.5 27.5 28.5C27.8357 28.5 28.1576 28.3667 28.3949 28.1293C28.6323 27.892 28.7656 27.57 28.7656 27.2344V21.3281C28.7656 20.9925 28.6323 20.6705 28.3949 20.4332C28.1576 20.1958 27.8357 20.0625 27.5 20.0625Z" fill="white"/>
<defs>
<linearGradient id="paint0_linear_401_2649" x1="-0.0249286" y1="55.5001" x2="54.9751" y2="55.5001" gradientUnits="userSpaceOnUse">
<stop stop-color="#D14124"/>
<stop offset="1" stop-color="#B02509"/>
</linearGradient>
</defs>
</svg>
