<svg width="55" height="56" viewBox="0 0 55 56" fill="none" xmlns="http://www.w3.org/2000/svg">
<circle cx="27.5" cy="28" r="27.5" fill="url(#paint0_linear_401_2679)"/>
<path d="M31.1836 27.0173L28 25.5946L31.1836 24.1719L32.6364 21.0541L34.0891 24.1719L37.2727 25.5946L34.0891 27.0173L32.6364 30.1351L31.1836 27.0173ZM15.6364 33.1622L17.0891 30.0443L20.2727 28.6216L17.0891 27.1989L15.6364 24.0811L14.1836 27.1989L11 28.6216L14.1836 30.0443L15.6364 33.1622ZM22.5909 25.5946L24.2755 21.947L28 20.2973L24.2755 18.6476L22.5909 15L20.9064 18.6476L17.1818 20.2973L20.9064 21.947L22.5909 25.5946ZM16.4091 43L25.6818 33.9038L31.8636 39.9578L45 25.4886L42.8209 23.3546L31.8636 35.4173L25.6818 29.3632L14.0909 40.7297L16.4091 43Z" fill="white"/>
<defs>
<linearGradient id="paint0_linear_401_2679" x1="-0.0249286" y1="55.5001" x2="54.9751" y2="55.5001" gradientUnits="userSpaceOnUse">
<stop stop-color="#D14124"/>
<stop offset="1" stop-color="#B02509"/>
</linearGradient>
</defs>
</svg>
