<svg width="44" height="44" viewBox="0 0 44 44" fill="none" xmlns="http://www.w3.org/2000/svg">
<path d="M22 0C9.85089 0 0 9.85089 0 22C0 34.1491 9.85089 44 22 44C34.1491 44 44 34.1491 44 22C44 9.85089 34.1491 0 22 0Z" fill="#E2E2E2"/>
<path d="M31.0356 20.4284H23.5713V12.9641C23.5713 12.7481 23.3945 12.5713 23.1784 12.5713H20.8213C20.6052 12.5713 20.4284 12.7481 20.4284 12.9641V20.4284H12.9641C12.7481 20.4284 12.5713 20.6052 12.5713 20.8213V23.1784C12.5713 23.3945 12.7481 23.5713 12.9641 23.5713H20.4284V31.0356C20.4284 31.2516 20.6052 31.4284 20.8213 31.4284H23.1784C23.3945 31.4284 23.5713 31.2516 23.5713 31.0356V23.5713H31.0356C31.2516 23.5713 31.4284 23.3945 31.4284 23.1784V20.8213C31.4284 20.6052 31.2516 20.4284 31.0356 20.4284Z" fill="white"/>
</svg>
